# xmcd
#
# Track frame offsets:
#	150
#	14555
#	36144
#	56214
#	69537
#	88375
#	103532
#	121583
#	137175
#	156511
#	171607
#	186768
#	201412
#
# Disc length: 3122 seconds
#
# Revision: 1
# Processed by: cddbd v1.5.2PL0 Copyright (c) Steve Scherf et al.
# Submitted via: audiograbber 1.83.01
#
DISCID=c60c300d
DTITLE=Steve Azar - Slide On Over Here
DYEAR=2009
DGENRE=Country
TTITLE0=I'll Find Me
TTITLE1=Sunshine
TTITLE2=All I Need
TTITLE3=Moo La Moo
TTITLE4=Hard Road
TTITLE5=Back To Memphis
TTITLE6=Apart At The Seams
TTITLE7=Sinkin' Or Swimmin' (With You)
TTITLE8=Take Your Time (Rayan's Song)
TTITLE9=Let Go Of The Rope
TTITLE10=Sweet Delta Chains
TTITLE11=Startin' Today
TTITLE12=Beautiful Regret
EXTD=
EXTT0=
EXTT1=
EXTT2=
EXTT3=
EXTT4=
EXTT5=
EXTT6=
EXTT7=
EXTT8=
EXTT9=
EXTT10=
EXTT11=
EXTT12=
PLAYORDER=
